<svg width="167" height="229" viewBox="0 0 167 229" fill="none" xmlns="http://www.w3.org/2000/svg">
<path opacity="0.4" d="M19.0516 38.0351H85.732V76.0704H57.1547V104.597H85.732V142.632H57.1547V171.158H123.835V0" fill="url(#paint0_linear_14_1066)"/>
<path d="M0 57.0526H66.6802V95.0875H38.1031V123.614H66.6802V161.649H38.1031V190.176H104.784V19.0176" fill="url(#paint1_linear_14_1066)"/>
<path opacity="0.6" d="M0 57.0527L19.0516 38.0352V209.193L0 228.211V57.0527Z" fill="#12102A"/>
<path d="M66.6802 95.0876L85.732 76.0705V38.0352L66.6802 57.0527V95.0876Z" fill="url(#paint2_linear_14_1066)"/>
<path d="M66.6802 161.649L85.732 142.632V104.597L66.6802 123.614V161.649Z" fill="url(#paint3_linear_14_1066)"/>
<path d="M28.5773 128.368H114.309L142.887 80.8242M142.887 80.8242V128.368M142.887 80.8242H95.2576" stroke="url(#paint4_linear_14_1066)" stroke-width="21.3326" stroke-linecap="round" stroke-linejoin="round"/>
<g filter="url(#filter0_f_14_1066)">
<path d="M142.887 88.4316C147.095 88.4316 150.508 85.0255 150.508 80.8243C150.508 76.6231 147.095 73.2178 142.887 73.2178C138.678 73.2178 135.266 76.6231 135.266 80.8243C135.266 85.0255 138.678 88.4316 142.887 88.4316Z" fill="white"/>
</g>
<defs>
<filter id="filter0_f_14_1066" x="119.266" y="57.2183" width="47.2407" height="47.2129" filterUnits="userSpaceOnUse" color-interpolation-filters="sRGB">
<feFlood flood-opacity="0" result="BackgroundImageFix"/>
<feBlend mode="normal" in="SourceGraphic" in2="BackgroundImageFix" result="shape"/>
<feGaussianBlur stdDeviation="7.99975" result="effect1_foregroundBlur_14_1066"/>
</filter>
<linearGradient id="paint0_linear_14_1066" x1="19.0516" y1="0" x2="171.487" y2="93.3217" gradientUnits="userSpaceOnUse">
<stop stop-color="#5C6BC0"/>
<stop offset="1" stop-color="#303F9F"/>
</linearGradient>
<linearGradient id="paint1_linear_14_1066" x1="0" y1="19.0176" x2="152.435" y2="112.339" gradientUnits="userSpaceOnUse">
<stop stop-color="#5C6BC0"/>
<stop offset="1" stop-color="#3F51B5"/>
</linearGradient>
<linearGradient id="paint2_linear_14_1066" x1="66.6802" y1="38.0352" x2="85.732" y2="38.0352" gradientUnits="userSpaceOnUse">
<stop stop-color="#12102A" stop-opacity="0.8"/>
<stop offset="1" stop-color="#12102A" stop-opacity="0.3"/>
</linearGradient>
<linearGradient id="paint3_linear_14_1066" x1="66.6802" y1="104.597" x2="85.732" y2="104.597" gradientUnits="userSpaceOnUse">
<stop stop-color="#12102A" stop-opacity="0.8"/>
<stop offset="1" stop-color="#12102A" stop-opacity="0.3"/>
</linearGradient>
<linearGradient id="paint4_linear_14_1066" x1="28.5773" y1="128.368" x2="62.2936" y2="47.304" gradientUnits="userSpaceOnUse">
<stop stop-color="#00F5D4"/>
<stop offset="1" stop-color="#F15BB5"/>
</linearGradient>
</defs>
</svg>
